# xmcd CD database file
# Copyright (C) 1997 Ti Kan
# 
# Track frame offsets:
#     150
#     16485
#     39010
#     60840
#     75507
#     89860
#     115400
#     127535
#     141180
#     158087
#     189360
#     205810
#     227960
# 
# Disc length: 3239 seconds
# 
# Revision: 1
# Processed by: cddbd v1.4b41PL1 Copyright (c) Steve Scherf et al.
# Submitted via: DiscPlay 4.0.4
# 
DISCID=9c0ca50d
DTITLE=Various Blues - Blue Saguaro
DYEAR=1900
DGENRE=
TTITLE0=Rialto Rock- Buddy Reed and The Rip it Ups
TTITLE1=Goin' To Chicago- Dino Spells
TTITLE2=Body and Fender Man- Big Pete Pearson and The Blue Sevilles
TTITLE3=Drunken Hearted Man- Scotty Spenner
TTITLE4=Don't Leave Me Know More- Cheif Gillame
TTITLE5=Damn Your Eyes- Sam Taylor
TTITLE6=Lonesome Whistler- The Hoodoo Kings
TTITLE7=My Kind of Woman- Tommy Dukes
TTITLE8=Brownsville Blues- Rena Haus
TTITLE9=Mother In Law Blues- Chico Chism
TTITLE10=Boogie Rambler- S.E. Willis
TTITLE11=Tribute to Tangle Eye- The Rocket 88s
TTITLE12=One of These Mornings- Hans Olson
EXTD=
EXTT0=
EXTT1=
EXTT2=
EXTT3=
EXTT4=
EXTT5=
EXTT6=
EXTT7=
EXTT8=
EXTT9=
EXTT10=
EXTT11=
EXTT12=
PLAYORDER=
